<svg xmlns="http://www.w3.org/2000/svg" fill="none" viewBox="0 0 55 80"><path fill="#A87B24" d="M25.1074 7.70796L26.2743 8.87482C26.3625 8.96297 26.4325 9.06762 26.4802 9.18282C26.5279 9.29802 26.5525 9.4215 26.5525 9.54619C26.5525 9.67089 26.5279 9.79437 26.4802 9.90956C26.4325 10.0248 26.3625 10.1294 26.2743 10.2176L12.0996 24.3905C12.0996 24.3905 8.57816 28.161 12.4096 32.3896L16.0843 36.0625C16.0843 36.0625 19.7416 39.0894 23.9475 35.4495C24.0916 35.3246 24.2776 35.2588 24.4681 35.2653C24.6587 35.2718 24.8398 35.35 24.9751 35.4843L26.3422 36.8532C26.4782 36.988 26.5575 37.1696 26.564 37.3609C26.5705 37.5523 26.5036 37.7388 26.377 37.8825C25.461 38.917 23.0332 40.9964 18.4825 40.7421C16.5307 40.4977 14.7081 39.6361 13.2804 38.283L9.78333 34.779C8.88406 33.8824 8.20142 32.7924 7.78749 31.5919C6.90277 29.0057 6.44821 24.6256 11.0059 20.5956L23.7612 7.70796C23.9398 7.52961 24.1819 7.42944 24.4343 7.42944C24.6867 7.42944 24.9288 7.52961 25.1074 7.70796Z"/><path fill="#A87B24" d="M40.1003 18.028L38.9352 19.1983C38.8475 19.2868 38.7433 19.3571 38.6283 19.4051C38.5134 19.453 38.3901 19.4777 38.2655 19.4777C38.141 19.4777 38.0177 19.453 37.9027 19.4051C37.7878 19.3571 37.6835 19.2868 37.5959 19.1983L23.4787 4.92613C23.4787 4.92613 19.7256 1.37506 15.5005 5.22045L11.8276 8.90737C11.8276 8.90737 8.80071 12.5821 12.4267 16.8141C12.5513 16.9592 12.6166 17.146 12.6095 17.3371C12.6024 17.5283 12.5234 17.7097 12.3883 17.8451L11.023 19.2175C10.8882 19.3536 10.7064 19.4329 10.5149 19.439C10.3235 19.4452 10.1369 19.3777 9.99368 19.2506C8.96441 18.3275 6.89368 15.8841 7.15666 11.3107C7.40229 9.35231 8.26406 7.52265 9.6175 6.08601L13.1163 2.57326C14.0104 1.67138 15.0996 0.986779 16.2999 0.572191C18.8809 -0.312529 23.254 -0.763598 27.2631 3.82545L40.1003 16.6748C40.2795 16.8544 40.3801 17.0977 40.3801 17.3514C40.3801 17.6051 40.2795 17.8484 40.1003 18.028Z"/><path fill="#A87B24" d="M29.8413 33.1284L28.671 31.9633C28.5825 31.8757 28.5122 31.7714 28.4643 31.6564C28.4163 31.5415 28.3916 31.4182 28.3916 31.2936C28.3916 31.1691 28.4163 31.0458 28.4643 30.9308C28.5122 30.8159 28.5825 30.7116 28.671 30.624L42.9414 16.5173C42.9414 16.5173 46.4925 12.7624 42.6489 8.53738L38.9619 4.8644C38.9619 4.8644 35.2855 1.83928 31.0552 5.4635C30.9097 5.58773 30.7229 5.65288 30.5317 5.64611C30.3405 5.63934 30.1588 5.56113 30.0225 5.42692L28.6501 4.05979C28.514 3.92528 28.4348 3.74357 28.4289 3.55229C28.4231 3.36101 28.4911 3.17481 28.6187 3.03226C29.5418 2.00125 31.9852 -0.0677402 36.5586 0.193496C38.514 0.440782 40.3403 1.30245 41.7746 2.65434L45.2873 6.15316C46.1895 7.04703 46.8741 8.13626 47.2884 9.33676C48.1731 11.9178 48.6242 16.2909 44.0351 20.3087L31.191 33.1441C31.0096 33.3201 30.7658 33.4173 30.513 33.4144C30.2601 33.4114 30.0187 33.3086 29.8413 33.1284Z"/><path fill="#A87B24" d="M14.8984 22.8366L16.0635 21.6662C16.1512 21.5777 16.2557 21.5074 16.3708 21.4594C16.4859 21.4114 16.6093 21.3867 16.734 21.3867C16.8587 21.3867 16.9821 21.4114 17.0972 21.4594C17.2123 21.5074 17.3167 21.5777 17.4045 21.6662L31.52 35.9384C31.52 35.9384 35.273 39.4895 39.4998 35.6441L43.1711 31.9572C43.1711 31.9572 46.1979 28.2825 42.5737 24.0505C42.4488 23.9056 42.3832 23.7189 42.39 23.5278C42.3968 23.3366 42.4755 23.1551 42.6103 23.0194L43.9774 21.6471C44.1119 21.5111 44.2934 21.4319 44.4846 21.4257C44.6757 21.4196 44.862 21.4869 45.005 21.614C46.0342 22.537 48.1049 24.9805 47.8437 29.5538C47.5978 31.5125 46.7354 33.3423 45.3811 34.7786L41.8823 38.2913C40.9901 39.19 39.9041 39.8727 38.7074 40.2872C36.1194 41.1719 31.7411 41.6229 27.7355 37.0426L14.9001 24.1898C14.7211 24.0102 14.6204 23.7671 14.6201 23.5135C14.6198 23.26 14.7198 23.0166 14.8984 22.8366Z"/><path fill="#020202" fill-rule="evenodd" d="M7.83443 49.506C8.41689 49.4318 9.006 49.4253 9.58994 49.4869C15.7292 50.1605 16.3355 55.934 16.3927 56.4782C16.3955 56.5052 16.397 56.5193 16.3978 56.5193C17.8607 70.1584 10.1433 69.9463 8.6194 69.9044C8.57765 69.9032 8.54055 69.9022 8.50842 69.9016C-0.673158 69.9121 -0.761977 60.41 0.693978 54.8544C1.77027 50.7251 5.97791 49.7359 7.83443 49.506ZM3.96091 55.1699C4.48861 50.4119 8.38799 50.5024 8.38799 50.5024C13.1912 50.5024 13.2714 56.4604 13.2714 56.4604V61.3629C13.2122 69.8548 8.34793 69.0467 8.34793 69.0467C4.07237 68.8482 3.96091 64.4246 3.96091 64.4246C3.65008 61.3475 3.65008 58.2469 3.96091 55.1699Z" clip-rule="evenodd"/><path fill="#020202" fill-rule="evenodd" d="M20.7451 50.2025V69.5235H28.6031C29.9702 69.5309 31.3202 69.2196 32.546 68.6144C34.0734 67.8499 35.653 66.5002 35.5346 64.2048C35.3082 59.8003 32.128 58.9922 31.63 58.879C31.6252 58.8777 31.6211 58.8748 31.6181 58.8709C31.6151 58.867 31.6135 58.8622 31.6135 58.8573C31.6135 58.8523 31.6151 58.8476 31.6181 58.8436C31.6211 58.8397 31.6252 58.8369 31.63 58.8355C32.0897 58.6352 34.6742 57.3883 34.6028 54.5512C34.568 53.158 34.1587 52.2489 33.0876 51.3851C31.9626 50.476 30.545 50.1956 29.0995 50.1956L20.7451 50.2025ZM24.3136 51.1791V58.5285H27.9587C28.637 58.5343 29.2916 58.2799 29.788 57.8175C30.2843 57.3552 30.5845 56.7203 30.6268 56.0433V55.8587V53.8768C30.6339 53.2378 30.4142 52.617 30.0068 52.1248L29.9058 52.0116C29.6239 51.7266 29.2851 51.5041 28.9115 51.3586C28.538 51.213 28.138 51.1477 27.7375 51.1669L24.3136 51.1791ZM24.3136 68.5329V59.4088L28.2426 59.3983C28.7091 59.3777 29.1744 59.4607 29.605 59.6414C30.0357 59.8221 30.4209 60.0959 30.7331 60.4433L30.848 60.5826C31.3198 61.2087 31.5698 61.974 31.5586 62.7578V65.2187V65.4485C31.4819 67.1884 30.1043 68.5329 28.4934 68.5329H24.3136Z" clip-rule="evenodd"/><path fill="#020202" d="M39.1416 49.8989H42.8285V58.3438H51.3135V49.8989H55.0004V69.5247H51.2734V59.3922H42.7484V69.5247H39.1416V49.8989Z"/><path fill="#020202" d="M12.3906 78.9527V75.2849H12.873V78.519H14.6808V78.9527H12.3906Z"/><path fill="#020202" d="M16.1709 79.0148L17.5763 75.3384H18.0988L19.6001 79.0079H19.0462L18.6213 77.9037H17.0887L16.6847 79.0148H16.1709ZM17.2298 77.5084H18.4733L18.0901 76.4913C17.9734 76.183 17.8864 75.9305 17.8306 75.732C17.7826 75.969 17.7162 76.2019 17.6321 76.4286L17.2298 77.5084Z"/><path fill="#020202" d="M21.4199 79.0148L20.3506 75.3384H20.8974L21.5105 77.7435C21.5767 77.996 21.6324 78.2451 21.6846 78.4941C21.7874 78.1023 21.8466 77.8758 21.8588 77.8166L22.6268 75.3384H23.2695L23.8459 77.2019C23.9818 77.6267 24.0866 78.061 24.1594 78.5011C24.2099 78.2694 24.2778 78.003 24.3597 77.7034L24.9954 75.3384H25.5318L24.4259 79.0079H23.9034L23.0535 76.2127C22.9821 75.9793 22.9403 75.8347 22.9281 75.7825C22.8863 75.9566 22.8463 76.0942 22.8097 76.2127L21.9546 79.0079L21.4199 79.0148Z"/><path fill="#020202" d="M28.0587 79.0148V77.4614L26.6445 75.3384H27.2349L27.9594 76.4443C28.0918 76.6515 28.2172 76.8588 28.3321 77.066C28.4413 76.8744 28.5748 76.6585 28.7327 76.4182L29.4432 75.3384H30.0075L28.5481 77.4614V79.0148H28.0587Z"/><path fill="#020202" d="M31.543 78.9527V75.2849H34.1954V75.7168H32.0306V76.8401H34.0595V77.2703H32.0306V78.519H34.2825V78.9527H31.543Z"/><path fill="#020202" d="M35.6992 79.0146V75.4757H37.3259C37.578 75.4648 37.8301 75.4972 38.0712 75.5715C38.2414 75.6346 38.3855 75.753 38.4805 75.9076C38.5808 76.0672 38.6334 76.2521 38.632 76.4406C38.635 76.5581 38.6142 76.675 38.5708 76.7842C38.5274 76.8935 38.4623 76.9928 38.3795 77.0762C38.1636 77.2699 37.8888 77.3853 37.5993 77.4036C37.7043 77.448 37.8028 77.5066 37.8919 77.5778C38.0455 77.7167 38.1807 77.8748 38.2942 78.048L38.9333 79.0111H38.322L37.8361 78.2744C37.6951 78.062 37.5784 77.9 37.4878 77.7868C37.4191 77.6953 37.3362 77.6154 37.2423 77.5499C37.1742 77.5067 37.0995 77.4749 37.0211 77.4559C36.9311 77.4432 36.8402 77.438 36.7494 77.4402H36.1869V79.0076L35.6992 79.0146ZM36.1851 77.0379H37.2301C37.4066 77.0442 37.5831 77.0218 37.7525 76.9717C37.8685 76.9343 37.9689 76.8596 38.0382 76.7593C38.1018 76.6652 38.1358 76.5542 38.1357 76.4406C38.137 76.3636 38.1212 76.2874 38.0896 76.2172C38.058 76.1471 38.0113 76.0848 37.9528 76.0348C37.7787 75.9127 37.5674 75.8554 37.3555 75.8728H36.1938L36.1851 77.0379Z"/><path fill="#020202" d="M39.8682 77.8352L40.2983 77.7952C40.3097 77.9544 40.358 78.1089 40.4394 78.2462C40.5252 78.3733 40.6463 78.4726 40.7877 78.5319C40.9519 78.6059 41.1301 78.6433 41.3102 78.6416C41.468 78.6445 41.6249 78.6161 41.7717 78.558C41.8911 78.5134 41.9947 78.4347 42.0695 78.3316C42.1332 78.2394 42.1672 78.1301 42.167 78.0181C42.1693 77.9101 42.1363 77.8043 42.073 77.7168C41.9916 77.6168 41.8835 77.5419 41.7613 77.5008C41.5604 77.431 41.3558 77.3728 41.1482 77.3267C40.9183 77.2759 40.6951 77.1988 40.4829 77.0968C40.3307 77.0168 40.2035 76.8962 40.1155 76.7485C40.0336 76.6105 39.9914 76.4526 39.9936 76.2922C39.9921 76.1075 40.0435 75.9262 40.1416 75.7697C40.2443 75.605 40.3959 75.4766 40.5752 75.4022C40.775 75.3171 40.9903 75.2744 41.2074 75.2769C41.4395 75.2729 41.6698 75.318 41.8832 75.4092C42.0693 75.4885 42.2263 75.6236 42.3325 75.7958C42.4407 75.9698 42.5008 76.1693 42.5067 76.374L42.0678 76.4089C42.059 76.2104 41.9734 76.023 41.8292 75.8864C41.6573 75.7574 41.4443 75.6955 41.2301 75.7122C41.0159 75.6941 40.8021 75.7514 40.6257 75.8742C40.5671 75.9205 40.5197 75.9795 40.4871 76.0468C40.4545 76.1141 40.4376 76.1878 40.4377 76.2626C40.4354 76.3233 40.4462 76.3838 40.4694 76.44C40.4925 76.4961 40.5274 76.5467 40.5718 76.5883C40.6588 76.6736 40.8887 76.7624 41.2579 76.8495C41.5192 76.9032 41.7746 76.982 42.0207 77.0846C42.2013 77.1648 42.3557 77.2939 42.4666 77.4573C42.5636 77.614 42.6132 77.7955 42.6094 77.9798C42.6097 78.1748 42.5554 78.3661 42.4527 78.5319C42.344 78.7071 42.1866 78.8468 41.9998 78.9342C41.7921 79.0327 41.5645 79.0822 41.3346 79.0787C41.0658 79.087 40.7985 79.0371 40.5509 78.9324C40.3453 78.8406 40.1723 78.6889 40.0545 78.497C39.9335 78.2974 39.869 78.0687 39.8682 77.8352Z"/></svg>