<svg width="251" height="90" viewBox="0 0 251 90" fill="none" xmlns="http://www.w3.org/2000/svg">
<path d="M39.7134 16.9777L42.2916 19.5479C42.4865 19.7421 42.6411 19.9726 42.7466 20.2263C42.8521 20.4801 42.9064 20.7521 42.9064 21.0267C42.9064 21.3014 42.8521 21.5734 42.7466 21.8271C42.6411 22.0808 42.4865 22.3114 42.2916 22.5055L10.9722 53.7235C10.9722 53.7235 3.19141 62.0287 11.6572 71.3427L19.7766 79.433C19.7766 79.433 27.8575 86.1001 37.1506 78.0827C37.469 77.8076 37.8799 77.6627 38.3009 77.677C38.7219 77.6912 39.122 77.8635 39.421 78.1594L42.4417 81.1745C42.7421 81.4714 42.9174 81.8715 42.9317 82.2929C42.946 82.7143 42.7983 83.1253 42.5187 83.4417C40.4946 85.7203 35.1304 90.3006 25.0754 89.7405C20.7629 89.202 16.7358 87.3043 13.5812 84.324L5.85428 76.6058C3.8673 74.631 2.359 72.23 1.44439 69.5858C-0.510427 63.8892 -1.51477 54.2414 8.55562 45.3647L36.7389 16.9777C37.1335 16.5849 37.6685 16.3643 38.2262 16.3643C38.7839 16.3643 39.3188 16.5849 39.7134 16.9777Z" fill="#A87B24"/>
<path d="M72.8406 39.7094L70.2663 42.2872C70.0727 42.4822 69.8422 42.637 69.5883 42.7426C69.3343 42.8482 69.0618 42.9026 68.7867 42.9026C68.5115 42.9026 68.239 42.8482 67.9851 42.7426C67.7311 42.637 67.5007 42.4822 67.3071 42.2872L36.1146 10.8505C36.1146 10.8505 27.822 3.02877 18.4866 11.4988L10.3711 19.6198C10.3711 19.6198 3.68311 27.7139 11.6948 37.0356C11.9702 37.3552 12.1145 37.7666 12.0988 38.1876C12.0831 38.6087 11.9086 39.0083 11.6101 39.3066L8.59325 42.3294C8.29544 42.6292 7.89372 42.8038 7.47071 42.8174C7.04769 42.831 6.63555 42.6824 6.31904 42.4023C4.04483 40.3692 -0.530528 34.9872 0.0505308 24.9136C0.593253 20.5999 2.49737 16.5698 5.48785 13.4054L13.2186 5.66799C15.1941 3.68147 17.6007 2.17353 20.2529 1.26034C25.9557 -0.688392 35.6182 -1.68194 44.4765 8.42613L72.8406 36.7287C73.2366 37.1243 73.4589 37.6603 73.4589 38.2191C73.4589 38.7779 73.2366 39.3138 72.8406 39.7094Z" fill="#A87B24"/>
<path d="M50.1729 72.9699L47.587 70.4035C47.3915 70.2105 47.2362 69.9808 47.1302 69.7276C47.0243 69.4745 46.9697 69.2029 46.9697 68.9285C46.9697 68.6542 47.0243 68.3826 47.1302 68.1294C47.2362 67.8763 47.3915 67.6466 47.587 67.4536L79.1181 36.3813C79.1181 36.3813 86.9643 28.1107 78.4716 18.8044L70.3253 10.7141C70.3253 10.7141 62.202 4.05085 52.855 12.0337C52.5336 12.3074 52.1208 12.4509 51.6984 12.436C51.2759 12.4211 50.8744 12.2488 50.5731 11.9532L47.5409 8.94184C47.2401 8.64557 47.0651 8.24533 47.0522 7.82401C47.0393 7.40268 47.1895 6.99255 47.4716 6.67856C49.5111 4.4076 54.9099 -0.149661 65.0149 0.425751C69.3354 0.970436 73.3709 2.86839 76.5399 5.84613L84.3015 13.5528C86.2947 15.5217 87.8075 17.9209 88.7229 20.5652C90.6777 26.2502 91.6744 35.8826 81.5347 44.7325L53.1552 73.0044C52.7542 73.3922 52.2156 73.6062 51.6569 73.5998C51.0983 73.5933 50.5648 73.3669 50.1729 72.9699Z" fill="#A87B24"/>
<path d="M17.1558 50.301L19.7302 47.7231C19.9241 47.528 20.1549 47.3732 20.4091 47.2675C20.6634 47.1618 20.9362 47.1074 21.2117 47.1074C21.4872 47.1074 21.76 47.1618 22.0142 47.2675C22.2685 47.3732 22.4993 47.528 22.6932 47.7231L53.8818 79.1598C53.8818 79.1598 62.1744 86.9816 71.5136 78.5115L79.6254 70.3905C79.6254 70.3905 86.3133 62.2964 78.3055 52.9747C78.0296 52.6556 77.8846 52.2445 77.8996 51.8235C77.9146 51.4024 78.0884 51.0026 78.3863 50.7037L81.407 47.6809C81.7042 47.3814 82.1053 47.2069 82.5276 47.1933C82.95 47.1798 83.3615 47.3282 83.6774 47.608C85.9516 49.6412 90.527 55.0232 89.9497 65.0967C89.4065 69.4111 87.5009 73.4414 84.5086 76.605L76.7778 84.3423C74.8064 86.3219 72.4069 87.8257 69.7628 88.7385C64.0445 90.6872 54.3705 91.6808 45.5199 81.5919L17.1597 53.2816C16.7641 52.8861 16.5417 52.3506 16.541 51.7921C16.5403 51.2336 16.7613 50.6975 17.1558 50.301Z" fill="#A87B24"/>
<path fill-rule="evenodd" clip-rule="evenodd" d="M133.515 8.24364C134.966 8.05864 136.433 8.04263 137.888 8.19593C153.18 9.87396 154.69 24.2551 154.833 25.6107C154.84 25.678 154.843 25.7132 154.845 25.7132C158.489 59.6868 139.266 59.1584 135.47 59.0541C135.366 59.0512 135.274 59.0487 135.194 59.0472C112.323 59.0732 112.102 35.4045 115.729 21.5659C118.41 11.2803 128.89 8.81627 133.515 8.24364ZM123.866 22.3517C125.18 10.5 134.893 10.7256 134.893 10.7256C146.858 10.7256 147.057 25.5663 147.057 25.5663V37.778C146.91 58.9306 134.793 56.9177 134.793 56.9177C124.143 56.4232 123.866 45.4044 123.866 45.4044C123.091 37.7397 123.091 30.0164 123.866 22.3517Z" fill="white"/>
<path fill-rule="evenodd" clip-rule="evenodd" d="M165.674 9.97829V58.1052H185.247C188.653 58.1235 192.015 57.3482 195.069 55.8407C198.873 53.9363 202.808 50.5742 202.513 44.8566C201.949 33.8856 194.028 31.8727 192.787 31.5907C192.775 31.5873 192.765 31.5802 192.757 31.5704C192.75 31.5607 192.746 31.5487 192.746 31.5365C192.746 31.5242 192.75 31.5123 192.757 31.5025C192.765 31.4927 192.775 31.4856 192.787 31.4822C193.932 30.9834 200.37 27.8773 200.192 20.8105C200.105 17.3401 199.086 15.0756 196.418 12.9239C193.616 10.6594 190.084 9.96094 186.484 9.96094L165.674 9.97829ZM174.563 12.4108V30.7176H183.642C185.332 30.732 186.962 30.0982 188.199 28.9466C189.435 27.795 190.183 26.2134 190.288 24.5271V24.0673V19.1305C190.306 17.5389 189.759 15.9926 188.744 14.7664L188.492 14.4844C187.79 13.7745 186.946 13.2203 186.016 12.8578C185.085 12.4954 184.089 12.3327 183.091 12.3804L174.563 12.4108ZM174.563 55.6375V32.9102L184.349 32.8842C185.511 32.8329 186.671 33.0397 187.743 33.4897C188.816 33.9398 189.775 34.6219 190.553 35.4871L190.839 35.8341C192.014 37.3936 192.637 39.2999 192.609 41.2524V47.3821V47.9548C192.418 52.2885 188.987 55.6375 184.974 55.6375H174.563Z" fill="white"/>
<path d="M211.498 9.22266H220.682V30.2581H241.817V9.22266H251.001V58.1087H241.717V32.8696H220.482V58.1087H211.498V9.22266Z" fill="white"/>
<path d="M144.864 81.5931V72.457H146.066V80.5129H150.569V81.5931H144.864Z" fill="white"/>
<path d="M154.28 81.7485L157.781 72.5908H159.083L162.822 81.7312H161.442L160.384 78.9808H156.566L155.56 81.7485H154.28ZM156.918 77.9961H160.015L159.061 75.4626C158.77 74.6948 158.553 74.0658 158.414 73.5712C158.295 74.1616 158.129 74.7417 157.92 75.3065L156.918 77.9961Z" fill="white"/>
<path d="M167.355 81.7485L164.691 72.5908H166.054L167.581 78.5817C167.745 79.2108 167.884 79.8311 168.014 80.4515C168.27 79.4754 168.418 78.9114 168.448 78.7639L170.361 72.5908H171.962L173.398 77.2326C173.737 78.2909 173.997 79.3725 174.179 80.4688C174.305 79.8918 174.474 79.2281 174.678 78.482L176.261 72.5908H177.597L174.843 81.7312H173.541L171.424 74.7686C171.246 74.1873 171.142 73.8272 171.112 73.697C171.008 74.1308 170.908 74.4736 170.817 74.7686L168.687 81.7312L167.355 81.7485Z" fill="white"/>
<path d="M183.892 81.7485V77.879L180.369 72.5908H181.84L183.644 75.3455C183.974 75.8617 184.286 76.378 184.573 76.8942C184.845 76.417 185.177 75.8791 185.571 75.2804L187.34 72.5908H188.746L185.111 77.879V81.7485H183.892Z" fill="white"/>
<path d="M192.571 81.5931V72.457H199.178V73.5329H193.786V76.331H198.84V77.4025H193.786V80.5129H199.395V81.5931H192.571Z" fill="white"/>
<path d="M202.924 81.7479V72.9329H206.976C207.604 72.9056 208.232 72.9863 208.832 73.1715C209.256 73.3288 209.615 73.6236 209.852 74.0088C210.102 74.4062 210.233 74.8668 210.229 75.3362C210.237 75.629 210.185 75.9202 210.077 76.1923C209.969 76.4644 209.806 76.7118 209.6 76.9196C209.062 77.4022 208.378 77.6895 207.657 77.7352C207.918 77.8458 208.164 77.9917 208.386 78.169C208.768 78.5151 209.105 78.9087 209.388 79.3403L210.98 81.7393H209.457L208.247 79.9043C207.895 79.375 207.605 78.9716 207.379 78.6896C207.208 78.4617 207.001 78.2626 206.767 78.0996C206.598 77.9918 206.412 77.9127 206.216 77.8653C205.992 77.8337 205.766 77.8207 205.54 77.8263H204.138V81.7306L202.924 81.7479ZM204.134 76.8242H206.737C207.177 76.8399 207.616 76.7842 208.038 76.6594C208.327 76.566 208.577 76.38 208.75 76.1301C208.908 75.8957 208.993 75.6192 208.993 75.3362C208.996 75.1446 208.957 74.9547 208.878 74.7799C208.799 74.6052 208.683 74.45 208.537 74.3255C208.104 74.0214 207.577 73.8787 207.049 73.922H204.156L204.134 76.8242Z" fill="white"/>
<path d="M213.309 78.8098L214.38 78.71C214.408 79.1067 214.529 79.4914 214.732 79.8336C214.945 80.1502 215.247 80.3975 215.599 80.545C216.008 80.7294 216.452 80.8226 216.901 80.8183C217.294 80.8257 217.684 80.7549 218.05 80.6101C218.347 80.4991 218.606 80.303 218.792 80.0461C218.95 79.8166 219.035 79.5442 219.035 79.2653C219.041 78.9963 218.958 78.7328 218.801 78.5148C218.598 78.2657 218.329 78.0792 218.024 77.9769C217.524 77.8029 217.014 77.658 216.497 77.5431C215.925 77.4166 215.368 77.2244 214.84 76.9704C214.461 76.7711 214.144 76.4708 213.925 76.1028C213.721 75.7591 213.616 75.3658 213.621 74.9662C213.617 74.5061 213.745 74.0546 213.99 73.6648C214.246 73.2546 214.623 72.9346 215.07 72.7495C215.567 72.5374 216.104 72.431 216.645 72.4371C217.223 72.4272 217.796 72.5396 218.328 72.7668C218.791 72.9644 219.182 73.3009 219.447 73.7299C219.716 74.1631 219.866 74.6601 219.881 75.1701L218.788 75.2569C218.766 74.7624 218.553 74.2958 218.193 73.9555C217.765 73.6341 217.235 73.4798 216.701 73.5216C216.168 73.4764 215.635 73.6191 215.196 73.9251C215.05 74.0405 214.931 74.1874 214.85 74.355C214.769 74.5225 214.727 74.7063 214.727 74.8925C214.722 75.0437 214.749 75.1944 214.806 75.3343C214.864 75.4743 214.951 75.6002 215.061 75.7037C215.278 75.9163 215.851 76.1375 216.77 76.3544C217.421 76.4883 218.057 76.6844 218.67 76.9401C219.12 77.1397 219.505 77.4613 219.781 77.8684C220.023 78.2589 220.146 78.7108 220.137 79.1698C220.138 79.6557 220.002 80.1321 219.746 80.545C219.476 80.9814 219.084 81.3296 218.618 81.5471C218.101 81.7926 217.534 81.9158 216.961 81.9072C216.292 81.928 215.626 81.8037 215.009 81.5428C214.497 81.3142 214.066 80.9362 213.773 80.4583C213.471 79.9611 213.311 79.3912 213.309 78.8098Z" fill="white"/>
</svg>
